<mxfile host="Electron" agent="Mozilla/5.0 (Windows NT 10.0; Win64; x64) AppleWebKit/537.36 (KHTML, like Gecko) draw.io/24.7.8 Chrome/128.0.6613.36 Electron/32.0.1 Safari/537.36" version="24.7.8">
  <diagram name="Página-1" id="QvZc0l-YlrU97nLgtBet">
    <mxGraphModel dx="2868" dy="1912" grid="1" gridSize="10" guides="1" tooltips="1" connect="1" arrows="1" fold="1" page="1" pageScale="1" pageWidth="827" pageHeight="1169" math="0" shadow="0">
      <root>
        <mxCell id="0" />
        <mxCell id="1" parent="0" />
        <mxCell id="URfJf0eUfdplDqufnfLQ-1" value="&lt;font style=&quot;font-size: 72px;&quot;&gt;Theme: Parking System&lt;/font&gt;" style="text;html=1;align=center;verticalAlign=middle;whiteSpace=wrap;rounded=0;" parent="1" vertex="1">
          <mxGeometry x="390" width="880" height="100" as="geometry" />
        </mxCell>
        <mxCell id="URfJf0eUfdplDqufnfLQ-3" value="&lt;font style=&quot;font-size: 32px;&quot;&gt;Lugares&lt;br&gt;&amp;nbsp; &amp;nbsp; Disponiveis&lt;br&gt;&amp;nbsp; &amp;nbsp; Ocupados&lt;br&gt;Nivel de Metano/CO2&lt;br&gt;double €/h&lt;br&gt;Matricula&lt;br&gt;bool ViaVerde&lt;br&gt;Hora de Entrada&lt;br&gt;Hora de saída&lt;br&gt;&lt;br&gt;&lt;br&gt;&lt;br&gt;class parque{&lt;/font&gt;&lt;div&gt;&lt;font style=&quot;font-size: 32px;&quot;&gt;private:&amp;nbsp;&lt;/font&gt;&lt;/div&gt;&lt;div&gt;&lt;font style=&quot;font-size: 32px;&quot;&gt;&lt;span style=&quot;white-space: pre;&quot;&gt;&#x9;&lt;/span&gt;int Lugares;&lt;br&gt;&lt;/font&gt;&lt;/div&gt;&lt;div&gt;&lt;font style=&quot;font-size: 32px;&quot;&gt;};&lt;/font&gt;&lt;/div&gt;&lt;div&gt;&lt;font style=&quot;font-size: 32px;&quot;&gt;&lt;br&gt;&lt;/font&gt;&lt;/div&gt;&lt;div&gt;&lt;font style=&quot;font-size: 32px;&quot;&gt;class pesados {&lt;/font&gt;&lt;/div&gt;&lt;div&gt;&lt;font style=&quot;font-size: 32px;&quot;&gt;&lt;span style=&quot;white-space: pre;&quot;&gt;&#x9;&lt;/span&gt;&lt;br&gt;&lt;/font&gt;&lt;/div&gt;&lt;div&gt;&lt;font style=&quot;font-size: 32px;&quot;&gt;};&lt;br&gt;&lt;br&gt;&lt;/font&gt;&lt;div&gt;&lt;font style=&quot;font-size: 32px;&quot;&gt;class veiculo{&lt;/font&gt;&lt;/div&gt;&lt;div&gt;&lt;span style=&quot;font-size: 32px;&quot;&gt;private:&lt;/span&gt;&lt;/div&gt;&lt;div&gt;&lt;span style=&quot;font-size: 32px;&quot;&gt;&lt;span style=&quot;white-space: pre;&quot;&gt;&#x9;&lt;/span&gt;bool ViaVerde;&lt;br&gt;&lt;/span&gt;&lt;/div&gt;&lt;div&gt;&lt;span style=&quot;font-size: 32px;&quot;&gt;&lt;span style=&quot;white-space: pre;&quot;&gt;&#x9;&lt;/span&gt;string matricula;&lt;br&gt;&lt;/span&gt;&lt;/div&gt;&lt;div&gt;&lt;span style=&quot;font-size: 32px; background-color: initial;&quot;&gt;};&lt;/span&gt;&lt;span style=&quot;font-size: 32px; background-color: initial; white-space: pre;&quot;&gt;&#x9;&lt;/span&gt;&lt;br&gt;&lt;/div&gt;&lt;/div&gt;" style="text;html=1;align=left;verticalAlign=middle;whiteSpace=wrap;rounded=0;" parent="1" vertex="1">
          <mxGeometry x="330" y="220" width="490" height="800" as="geometry" />
        </mxCell>
        <mxCell id="URfJf0eUfdplDqufnfLQ-8" value="" style="edgeStyle=orthogonalEdgeStyle;rounded=0;orthogonalLoop=1;jettySize=auto;html=1;entryX=0.5;entryY=0;entryDx=0;entryDy=0;" parent="1" source="URfJf0eUfdplDqufnfLQ-5" target="URfJf0eUfdplDqufnfLQ-6" edge="1">
          <mxGeometry relative="1" as="geometry">
            <Array as="points">
              <mxPoint x="1290" y="290" />
              <mxPoint x="1450" y="290" />
            </Array>
          </mxGeometry>
        </mxCell>
        <mxCell id="URfJf0eUfdplDqufnfLQ-10" value="" style="edgeStyle=orthogonalEdgeStyle;rounded=0;orthogonalLoop=1;jettySize=auto;html=1;" parent="1" source="URfJf0eUfdplDqufnfLQ-5" target="URfJf0eUfdplDqufnfLQ-9" edge="1">
          <mxGeometry relative="1" as="geometry" />
        </mxCell>
        <mxCell id="URfJf0eUfdplDqufnfLQ-12" value="" style="edgeStyle=orthogonalEdgeStyle;rounded=0;orthogonalLoop=1;jettySize=auto;html=1;" parent="1" source="URfJf0eUfdplDqufnfLQ-5" target="URfJf0eUfdplDqufnfLQ-11" edge="1">
          <mxGeometry relative="1" as="geometry">
            <Array as="points">
              <mxPoint x="1290" y="290" />
              <mxPoint x="1130" y="290" />
            </Array>
          </mxGeometry>
        </mxCell>
        <mxCell id="URfJf0eUfdplDqufnfLQ-5" value="Parque" style="rounded=0;whiteSpace=wrap;html=1;" parent="1" vertex="1">
          <mxGeometry x="1230" y="180" width="120" height="60" as="geometry" />
        </mxCell>
        <mxCell id="URfJf0eUfdplDqufnfLQ-6" value="Pesados" style="whiteSpace=wrap;html=1;rounded=0;" parent="1" vertex="1">
          <mxGeometry x="1390" y="330" width="120" height="60" as="geometry" />
        </mxCell>
        <mxCell id="URfJf0eUfdplDqufnfLQ-9" value="Ligeiros" style="whiteSpace=wrap;html=1;rounded=0;" parent="1" vertex="1">
          <mxGeometry x="1230" y="330" width="120" height="60" as="geometry" />
        </mxCell>
        <mxCell id="URfJf0eUfdplDqufnfLQ-11" value="Motos" style="whiteSpace=wrap;html=1;rounded=0;" parent="1" vertex="1">
          <mxGeometry x="1070" y="330" width="120" height="60" as="geometry" />
        </mxCell>
        <mxCell id="URfJf0eUfdplDqufnfLQ-15" value="" style="edgeStyle=orthogonalEdgeStyle;rounded=0;orthogonalLoop=1;jettySize=auto;html=1;" parent="1" source="URfJf0eUfdplDqufnfLQ-13" target="URfJf0eUfdplDqufnfLQ-14" edge="1">
          <mxGeometry relative="1" as="geometry" />
        </mxCell>
        <mxCell id="URfJf0eUfdplDqufnfLQ-16" value="" style="edgeStyle=orthogonalEdgeStyle;rounded=0;orthogonalLoop=1;jettySize=auto;html=1;" parent="1" source="URfJf0eUfdplDqufnfLQ-13" target="URfJf0eUfdplDqufnfLQ-14" edge="1">
          <mxGeometry relative="1" as="geometry" />
        </mxCell>
        <mxCell id="URfJf0eUfdplDqufnfLQ-18" value="" style="edgeStyle=orthogonalEdgeStyle;rounded=0;orthogonalLoop=1;jettySize=auto;html=1;" parent="1" source="URfJf0eUfdplDqufnfLQ-13" target="URfJf0eUfdplDqufnfLQ-17" edge="1">
          <mxGeometry relative="1" as="geometry">
            <Array as="points">
              <mxPoint x="1800" y="280" />
              <mxPoint x="1940" y="280" />
            </Array>
          </mxGeometry>
        </mxCell>
        <mxCell id="URfJf0eUfdplDqufnfLQ-21" style="edgeStyle=orthogonalEdgeStyle;rounded=0;orthogonalLoop=1;jettySize=auto;html=1;entryX=0.5;entryY=0;entryDx=0;entryDy=0;" parent="1" source="URfJf0eUfdplDqufnfLQ-13" target="URfJf0eUfdplDqufnfLQ-19" edge="1">
          <mxGeometry relative="1" as="geometry">
            <Array as="points">
              <mxPoint x="1800" y="280" />
              <mxPoint x="1660" y="280" />
            </Array>
          </mxGeometry>
        </mxCell>
        <mxCell id="URfJf0eUfdplDqufnfLQ-13" value="Veiculo" style="rounded=0;whiteSpace=wrap;html=1;" parent="1" vertex="1">
          <mxGeometry x="1740" y="180" width="120" height="60" as="geometry" />
        </mxCell>
        <mxCell id="URfJf0eUfdplDqufnfLQ-14" value="Ligeiro" style="whiteSpace=wrap;html=1;rounded=0;" parent="1" vertex="1">
          <mxGeometry x="1740" y="330" width="120" height="60" as="geometry" />
        </mxCell>
        <mxCell id="URfJf0eUfdplDqufnfLQ-17" value="Pesado" style="whiteSpace=wrap;html=1;rounded=0;" parent="1" vertex="1">
          <mxGeometry x="1880" y="330" width="120" height="60" as="geometry" />
        </mxCell>
        <mxCell id="URfJf0eUfdplDqufnfLQ-19" value="Motociclo" style="whiteSpace=wrap;html=1;rounded=0;" parent="1" vertex="1">
          <mxGeometry x="1600" y="330" width="120" height="60" as="geometry" />
        </mxCell>
      </root>
    </mxGraphModel>
  </diagram>
</mxfile>
